<?xml version="1.0" encoding="utf-8"?>
<!-- Generator: Adobe Illustrator 16.0.0, SVG Export Plug-In . SVG Version: 6.00 Build 0)  -->
<!DOCTYPE svg PUBLIC "-//W3C//DTD SVG 1.1//EN" "http://www.w3.org/Graphics/SVG/1.1/DTD/svg11.dtd">
<svg version="1.1"
	 id="Layer_1" xmlns:cc="http://creativecommons.org/ns#" xmlns:svg="http://www.w3.org/2000/svg" xmlns:sodipodi="http://sodipodi.sourceforge.net/DTD/sodipodi-0.dtd" xmlns:rdf="http://www.w3.org/1999/02/22-rdf-syntax-ns#" xmlns:dc="http://purl.org/dc/elements/1.1/" xmlns:inkscape="http://www.inkscape.org/namespaces/inkscape"
	 xmlns="http://www.w3.org/2000/svg" xmlns:xlink="http://www.w3.org/1999/xlink" x="0px" y="0px" width="369.5px" height="485.5px"
	 viewBox="0 0 369.5 485.5" enable-background="new 0 0 369.5 485.5" xml:space="preserve">
  <g
     id="district_popouts"
     data-translate-w="369.5"
     data-translate-h="485.5"
    >

    <path id="path128_2_" d="
	    M80.402,292.859l-0.24-0.344l-0.399-0.633l-0.046-0.053v-0.091h-0.046l-0.148-0.297l-1.13-1.905l-0.191-0.251l-0.195-0.435
	    l-0.147-0.25l-1.177-2.247l-1.564-2.149l-0.728-0.783l-0.937-0.197l-0.139-0.054l-1.473-1.714l-1.219-0.138l-2.59-1.714l-1.52-2.154
	    l-1.085-3.038v-0.047l0.057-0.486v-0.152l0.39-1.021h-0.047l-0.49-0.198l-0.742-0.296h-0.089l-0.194-0.046l-0.537-0.047
	    l-0.342,0.047l-0.788,0.15l-0.241-0.058l-0.49-0.047l-1.025-0.093l-0.343-0.099l-1.769-1.134l-0.775,0.297l-0.401-0.639l-1.22-0.238
	    l-0.045-0.045l-1.621-0.878l-1.461-3.525l-0.046-0.046l-0.207-0.447l-1.219-2.933l5.041-1.372l-1.664-2.201l-3.618-6.609
	    l-0.834,0.449l-0.194-0.402l-3.229,1.771l-1.562-1.574l-0.398,0.343l-0.537-0.54l-0.343-1.114l-0.731-0.836l0.583-0.594l1.085,0.79
	    l1.904-1.568l-1.711-1.766l-0.741,0.205l-0.195-1.234l-0.342-0.479v-0.83l-3.71-3.526l2.102-2.353l1.905-0.922l-1.905-3.87
	    l0.148-0.236l-0.193,0.131l-3.869-7.914l2.497-0.198l0.139,0.297l0.399,0.047l1.176-0.146l0.581,0.534l0.786,0.19l0.286,0.401v0.778
	    l0.937,0.982l2.011,0.533l2.679,1.964l1.861,0.238l2.109,3.038l1.565,1.172l0.343,0.093l0.147-0.488l1.266,0.099l1.52-0.342
	    l1.519-1.068l0.533-0.105l1.371,0.641l2.544,1.903l1.417,0.152l1.083-0.198l2.489,1.95l0.204,0.542l8.844-0.97l11.262,10.359
	    l-0.547,4.403l-1.265,0.744l6.995,9.581l0.584,0.152l4.596,6.268l3.483-2.505l2.635,4.111l-3.664,2.394l3.081,4.5l0.64-0.479
	    l0.626,0.922l-0.147,0.343l2.203,2.933l-3.024,2.451l-0.297,0.541l-2.057-1.18l-2.589-2.393l-4.507-0.79l-1.266,0.882l-0.788,1.918
	    l-0.88,0.923l-1.858,0.982l-2.353-0.047l-1.664-0.837l-0.193,0.435l-1.075,0.402l-0.194,0.627l1.463,0.342l0.251,0.343l-0.047,0.487
	    l-3.378,4.212l-0.296-0.146l-1.176,2.544l-1.075,1.219L80.402,292.859" 
      district_id="20"
      district_name_eng="Rustavi"
      district_name_geo="რუსთავი"
    />
    <path id="path130_1_" vector-effect="none" d="
	    M246.682,371.221l0.683-0.399l0.491-0.431l0.785-2.161l3.133-4.349l0.389-1.135l0.732-1.025l0.838-0.537l3.033-0.191l0.442,0.042
	    h0.976l2.256,0.729l0.438,0.045l0.781,0.152l1.028,0.057l3.819,0.089l0.393,0.105l3.479,0.777l0.488,0.099l0.883,0.449l0.047,0.047
	    l0.541,0.534l0.243,0.198l2.349,2.155h0.048l0.637,0.58l0.1,0.105l2.202,2.098l0.732,0.3l0.687-0.686l-0.633,0.729l0.29,0.686
	    l0.099,0.047l0.442,0.251l0.144,0.046l1.029,0.541l-2.302,5.582l1.472,0.195l-1.03,6.852l6.022,1.768l0.294,0.494l-0.245,0.534
	    l-0.834-0.147h-0.096l-9.352-0.834v1.965l0.59,0.732l-0.395,2.054l-1.372,1.27l-2.006,1.175l-0.343,0.536l0.1,0.64h-0.1v0.251v0.046
	    l-0.145,0.836v0.045l0.099,0.102l0.046,0.195l0.05,0.047l-0.05,0.045v0.191l0.148,0.06l0.245,0.146h-0.149l0.053,0.197l-0.053,0.191
	    l0.197,0.541l0.051,0.297l0.147,0.58h0.096l0.194,0.83l1.913,0.105l1.562,0.831l9.694-0.144l3.037-0.688l4.502,0.149l3.234,1.118
	    l4.406,2.888l0.293,0.39l2.446,3.68l1.769,1.129l3.227,0.879l1.026,0.775l0.835,0.25l5.779,0.391l0.34,0.197v0.342l-2.793,0.938
	    l-2.348,0.043l-1.86-0.242l-2.057-1.516l-1.028-0.152l-1.468,0.29l-1.712,1.026l-1.371,2.352l0.243,3.087l-0.243,1.668l-0.394,1.411
	    l-0.93,1.477l-0.979,0.191l-2.446-0.389l-2.546,0.389l-2.4,1.089l-2.496,0.534l-1.615,1.517l-0.735,0.389l-2.843-0.64l-2.006,0.047
	    l-0.197,0.059l0.442,0.285l0.344,0.342l1.226-0.284l0.634,0.58l0.343,0.047l0.93,0.491v1.279l0.93,1.178l1.517,0.534l0.834,1.121
	    l0.393,0.204l0.931-0.251l1.029-0.831l0.54,0.684l0.683,0.297l2.152,5.391l0.983,0.237l-0.149,0.937l0.394,0.092l2.249-0.639
	    l0.395,1.177l-0.052,2.741l0.735,1.859l-0.394,0.448v0.686l-0.632,0.089l-0.641,0.983l-5.875,3.827l-0.684,1.162l-0.88-0.191
	    l-0.491,0.395l-0.096,0.14l-0.982,0.546l-1.859,0.244l-0.442,1.519l0.099,0.532h-2.446l-3.183-7.147l-0.834-0.433l-1.075-2.206
	    l0.146-0.593l-0.93-3.575l-1.372-2.394l-0.245-1.076l-1.318-2.789l-1.471,0.197l-0.93-0.837l-8.322-13.163l-3.133-5.735
	    l-3.133-4.896l-3.133-4.069l-0.494-2.738l-0.194-3.367l-1.369-4.855l-0.639,0.193l0.197-0.09l-0.244-0.445l-0.982,0.389l-0.93,0.054
	    l-1.075-0.64l0.784-2.89l-0.54-2.096l0.734,2.05l-0.88,2.835l0.977,0.595l1.421-0.194l1.028-0.598l0.099-0.923l-1.467-0.191
	    l0.099-0.551l1.563,0.148l0.244-0.687l-0.099,0.152l-0.146-0.245l4.603,0.496l0.1-1.279l-3.086-0.297l-1.175,0.738l-0.441-0.053
	    l0.244-0.243l-2.349-0.388l0.442-0.296l0.099-1.414v1.368l0.977,0.195l0.293-0.252l0.099-0.685l-0.243-0.14l1.565,0.198l0.146-1.134
	    l-0.29-0.047l0.488-0.25l-0.198-0.389l-0.343,0.197l0.343-0.197l-0.194-0.391l-0.637,0.344h-2.203l0.146,0.63l-0.245-0.776
	    l0.488-0.104l-0.046-2.685l-0.344-1.324l-2.255-5.537l-1.859-2.935l-0.732-0.64L246.682,371.221"
      district_id="70"
      district_name_eng="Poti"
      district_name_geo="ფოთი" 
    />
    <path id="path132_1_" vector-effect="none" d="
	    M120.702,347.449l1.322,0.673v0.793l-2.602,1.383l-2.744,3.354l0.663,1.094l-0.567,1.036l0.141,1.097l-0.093,0.416l-0.095,0.477
	    l-0.049,0.287l0.144,0.42l0.236,0.382l0.044,0.192l0.144,0.089l0.145,0.096l0.188,0.235l-0.144,0.242l-0.236,0.749l-0.471,0.763
	    l-1.187,1.09l-0.185,0.236l-0.76,0.095l-1.28,2.508l-0.896,0.749l-2.133,4.221l-0.092,1.753l-0.476,0.804l-0.235,1.747l-1.326,2.371
	    l-1.039,5.632l-1.421,1.801l-1.894,3.5l-0.473,0.705l-4.401,2.979l-0.898,2.128l-1.138,0.709l-1.654,1.854l0.143,0.229l-2.32,1.097
	    l-1.186,0.229l-0.755-0.561l-1.514,0.273l-2.889-0.517l-0.899,1.467l-1.326,1.038l-2.46-1.701l-0.471-0.804l-2.697,2.417l3.927,3.5
	    l0.377,0.617l0.993-0.188l-0.375,2.508l0.755,0.288l0.614,0.605l-0.566,2.128l-0.759,0.619l-0.567,1.613l-3.879,3.5l0.048,0.904
	    l0.708,0.707l1.753,0.473l3.595,4.449l-0.28-0.188l-1.804,1.183l-1.136,2.031l1.613,2.087l2.174,1.888l-1.37,1.236l-2.652,1.367
	    l2.983,4.548l-1.466,2.595l-1.518-0.994l-3.5-1.039l-0.427-1.225l-1.609-0.859l-1.894-2.219l-0.851-0.663l-1.04-0.287l-2.983-0.089
	    l-1.326,0.376l-1.75-1.421l-1.182-0.146l-1.752-0.709l-0.995-1.322l-0.708-0.373l-3.503-0.286l-1.609-1.519l-0.472,0.568
	    l-1.467,0.758l0.046,5.343l-0.899,0.523l-1.183-0.421h-2.461l-0.283,0.286l-0.618-0.146l-0.377,1.039l0.097,0.995l0.19,0.375
	    l0.66,0.287l0.095,0.377h0.381l0.279,0.949l-0.236,1.422l-0.566,0.516l-0.188,1.097l-1.94-0.198l-0.377,0.715v0.707h-1.138
	    l0.283,1.135l0.284,0.045l-0.093,0.479l0.424,1.422l0.663-0.287l1.47,1.988l1.606,0.287l0.235,0.663h0.568v0.376l-0.332,0.332
	    l-0.279-0.287l-0.715,0.382l-0.472,0.663l-0.944,0.045l-0.427,0.561l-0.476,1.236l-0.85,0.377l-0.096-0.708l0.235-0.655
	    l-0.759,0.229l-0.803,0.848l-2.129,0.434l-0.284-0.478l-0.52,0.241l-0.331-0.472l-0.567,0.23l-0.95-0.657l-1.039,0.759l-0.331-0.39
	    l0.047-0.413l-1.562-0.046l1.374-8.477l0.755-11.316l2.226-11.219l0.755-1.18l1.849-1.798l0.045-0.995l2.792-4.207l5.304-6.102
	    l3.265-2.32l0.566-0.904l-0.191-0.229l0.191,0.229l3.975-5.067l4.97-5.199l5.253-4.073l3.41-2.219l2.129-0.287l-0.146,0.233
	    l1.989,0.995l0.096,0.528l-0.331-0.197l-0.284,0.802l0.284,0.62l0.235-0.144l0.286,0.244l-0.331,0.991l0.663,1.272l-0.096,0.947
	    l0.615,0.707l2.554-0.376l1.421,0.475l1.04-0.143l-0.332-1.323l-0.52-0.523l-3.121,0.377l-0.051-0.23l2.748-0.434l1.893-1.035
	    l0.708,1.278l0.898,0.044v0.332l0.287,0.102l1.657-0.618l2.034-1.325l2.084-1.99l2.129-3.123l1.512-3.034l5.396-4.539l1.893-3.123
	    l5.536-13.011l4.023-2.751l4.545-8.756l2.409,1.039"
      district_id="79"
      district_name_eng="Batumi"
      district_name_geo="ბათუმი" 
    />
    <path id="path134_1_" vector-effect="none" d="
	    M295.707,217.053v-0.057h0.045l0.061,0.057l0.246,0.154l0.201-0.062h0.106l0.354,0.062h0.047l0.062,0.048l0.706,0.048l0.049,0.047
	    l0.2,0.212l0.201,0.354l-0.307,0.293l-0.048,0.062l-0.153,0.144l0.307,0.308h0.105h0.096h0.106h0.047l0.25,0.149l0.104,0.157
	    l0.049,0.048l0.259,0.259l0.047,0.45l-0.306,0.307h-0.049l0.308,0.246l0.355,0.26l0.047,0.047l0.201,0.307l0.259,0.45l0.093,0.106
	    l0.152,0.201l0.25,0.307h0.058l0.25-0.153l0.507,0.2l-0.402,0.97v0.048l1.112,2.325l1.678,2.128l0.399,1.876v0.153v0.048v0.045
	    l0.201,1.111l0.153,0.709l0.508,0.614l0.45-0.197l1.524,2.523v0.818h3.083l0.153,0.293l-0.296,1.419v2.633l0.604,1.17l-0.403,0.91
	    l0.447,0.553l0.354,2.08l0.557,0.505l-0.601,2.729l0.149,1.221l-0.307,2.738h-0.153l-0.352-0.508l-0.604-0.402l-0.46-0.059
	    l-0.201,0.059l-0.096,0.096l0.047,0.26l0.45,0.507v0.202l-0.047,0.201v0.044l-0.805,1.017l-1.43,0.661l-1.261,2.067l-0.154,0.416
	    l-0.048,0.401l0.048,0.198l0.059,0.307v0.355l-0.508,2.53l0.152,0.198l0.508,0.92l0.201,0.301l0.711,0.705l0.047,0.154v0.259v0.144
	    l-0.508,1.213l-0.096,0.11l-0.461,0.102l-0.153,0.048l-1.156,0.157h-0.263l-0.092,0.095l-0.153,0.104l-0.153,0.048l-0.201,0.048
	    l-0.412,0.061l-0.144,0.096l-0.153,0.197l-0.105,0.614l-0.049,1.017l0.758,1.357l0.259,0.307l1.155,1.678v0.048v0.048v0.047
	    l-0.958,0.51l-0.351,2.54l-0.109,0.198l-1.368-0.198l-0.402,0.45l0.509,1.473l1.572,1.665l0.352,0.71l0.45,0.709l-0.71,0.402
	    l-0.201,0.105l-0.092,0.092l-0.105,0.062l-0.403,0.354l-0.259,0.246l-0.047,0.061l-0.403,0.198l-0.509,1.063l-0.105,0.403
	    l-0.048,0.955l-0.104,0.215l-0.202,0.296l-0.153,0.354l-0.805,0.355l-0.26,0.614l0.062,0.753l-0.062,0.202l-0.6,1.016l0.153,0.757
	    l0.092,0.056l1.018,0.143l0.401-0.143l0.413-0.15l0.297,0.197l-0.048,0.805l-0.307,0.26l-1.111,0.604l-0.203,0.201l-0.105,0.105
	    v0.048l-0.092,0.307l0.048,0.399v0.259l-0.048,0.253l0.048,1.166l0.97,0.662l0.197,0.497l0.095,0.153l0.614,1.219l-0.105,0.148
	    l0.048,0.158l0.105,0.047l0.307,0.105l0.153,0.045l0.096-0.103h0.059l0.143,0.103l0.355,0.307l0.46,0.56l0.307,0.354l0.048,0.246
	    l0.46,0.307l0.294,0.157l0.156-0.157l0.706-0.246l0.71,0.803l0.105,0.2l0.096,0.106l0.153,0.105h0.048l0.105,0.096l0.153,0.048
	    l0.096,0.153v0.259l-0.201,0.446v0.307v0.512l-0.048,0.355h-0.047h-0.106l-1.266-0.048l-1.463,0.505l-0.354,0.096l-4.464,1.521
	    l-0.854-0.054l-0.504-0.097l-1.573-0.556l-0.2-0.059l-2.479-1.062l-0.768-0.154l-1.312,0.263l-0.509,0.15l-0.048-0.048l-0.057-0.106
	    l-0.355-0.398l-0.754-0.464l-1.218-1.111l-0.862-0.409l-1.112-1.064l-0.197-1.063l0.092-0.294l0.153-3.649l0.969-1.668l1.112-1.429
	    l-0.354-2.128l-2.436,0.818l-0.662-0.204l0.509-3.493h-0.352l-0.403-0.108l0.557-1.909l-5.824-1.48l-0.25-0.096l-0.059,0.354
	    l-0.248,0.096h-0.354h-0.307l-0.093,0.354l-0.201,0.157v1.06h-0.259l-0.096,0.049h-0.058l-0.249,0.412l0.2,0.096l-0.248,0.307
	    l-0.307,0.662l-0.26,0.354l-0.201,0.403l-0.801-0.308l0.351-0.606l0.048-0.104l-0.613-0.096l-1.156-0.061l-0.106-0.553l-1.217-0.249
	    l0.105-0.259l0.249-0.494l0.058-0.109l0.153-0.246l0.201-0.354l0.153-0.307l-0.307,0.095l-1.016-0.143l-0.45,0.096l-0.26-0.157
	    l-0.308-0.096l0.26-0.505l0.157,0.096l0.153-0.354l0.044-0.096l0.71-1.419l-0.614-0.153l-0.096-0.307l-0.105-0.093l-0.048-0.512
	    l0.048-0.259l0.062-0.153l-0.71-0.494l-0.613-0.355l-0.106-0.061l-0.095-0.048l-0.71,0.709l-0.552-0.307l-0.062-0.048l0.062-0.354
	    l0.044-0.103v-0.048v-0.096l0.048-0.061l0.062-0.048l-0.062-0.104l-0.201-0.047h-0.153h-0.045h-0.108l-0.048-0.156v-0.246h-0.092
	    h-0.106l-0.108-0.201l-0.093-0.153l-0.201-0.464l-0.058-0.092l0.105-0.216l0.249-0.197l0.614-0.354l0.153-0.049l0.354-0.105
	    l0.201-0.092h0.153l0.399-0.109v-0.805l0.201-0.054l0.91-0.144l0.815-0.156l-0.048-0.055l-0.201-0.301l-0.508-0.764v-0.048
	    l-0.662-1.017l-0.307-0.402l-0.246-0.355l-0.2-0.354l-0.662-0.955l-0.263-0.464l0.307-0.307l0.464-0.355l-0.263-0.293l0.154-0.354
	    l0.047-0.059l0.461,0.201l0.201,0.059l-0.153-0.557l0.2-0.709h0.567l0.65,0.451l0.212-0.355l-0.413-0.457v-0.961l-0.047-0.308
	    v-0.048l-0.048-0.15l-0.202-0.402l-0.058-0.047l-0.095-0.154l-0.26,0.093l-0.556,0.308l-0.245,0.107l-0.062,0.049l-0.249,0.153
	    l-0.307,0.153l-1.31,0.6l-0.709,0.355v0.047h-0.058l-0.495,0.26l-0.354,0.157v0.048l-0.814,0.354v0.044v0.058l0.245,0.651
	    l-1.357,0.706l-0.26,0.157l-0.508,0.26l-0.154,0.095l-0.401-1.515l-0.249,0.049l-0.259-0.553h-0.802l-0.062-0.464v-0.105v-0.044
	    l-0.044-0.253l-0.048-0.505l-1.678,0.092l-0.201,4.266l-2.02,0.648l-1.478,0.059h-0.354l-1.772,0.447l-0.907-0.308l-1.726-0.601
	    l-0.911-0.307l-0.657-0.198l-2.33-0.156l-1.155-1.159l-0.062-0.055l-0.197-0.144l-1.62-1.477l-0.814-1.108l-0.495-1.266
	    l-0.062-0.105l-0.152-0.354l-0.198-0.354l-1.063-0.307h-0.096l-1.17-0.048l0.106-1.064l0.047-0.308l-0.105-0.197l-0.048-0.156
	    v-0.049l0.509-1.016l0.105-0.246l0.497-0.968l1.276,0.062l0.048-0.205h0.447l0.061-0.211l-0.061-0.758l0.214-0.197l0.045-0.109
	    l0.45-0.601l-0.141-0.108l-0.354-0.199v-1.312l0.495-2.028v-0.048l0.105-0.403l0.048-0.108l1.831,0.757l0.805,0.307l3.4,1.419
	    l0.402,0.197l0.307,0.109l0.754,0.355l1.467,0.6l0.354,0.156l0.753,0.308l0.216,0.048l0.447,0.197l0.415,0.158l2.418,0.811
	    l0.464,0.048l0.048-0.45v-0.102l0.259-0.157h0.955l0.662,0.048h0.096l0.306-0.048l0.106-0.198l0.048-0.109v-0.047l-0.2-0.307v-0.141
	    l0.046-0.153l0.049-0.153l0.412-0.049l0.249-0.351l0.106-0.156l0.096-0.059l0.105-0.092l-0.048-0.062l0.096-0.047l0.259-0.154
	    l0.14,0.059l0.215-0.15l0.092-0.062l0.202-0.095l1.418,0.047l0.106-0.047l0.446-0.199v0.399h0.061h0.557l0.509,0.048l0.092,0.105
	    l0.152,0.355h0.059l0.757,0.152l0.097-0.044l0.412-0.723l0.201-0.402l0.802-0.806l4.358,0.451h0.307l0.048-0.505l0.758-1.064
	    l0.814,0.106l0.508,0.152h0.308l0.047-0.108l0.048-0.092l0.153-0.154h0.106l0.354-0.354l0.047-0.105v-0.153l0.049-0.048l0.105-0.105
	    l0.092-0.092l0.062-0.049v-0.061l0.093,0.061l-0.049-0.463h0.202h0.109l0.351,0.047l0.047,0.109l0.604,0.049h0.058h0.048
	    l0.048-0.097l0.413-0.511l0.709-0.104l0.096,0.104l1.063-0.15h0.049l0.211-0.26l0.095-0.205l0.045-0.149l0.105-0.204l0.201-0.246
	    l0.062-0.062l0.249-0.14v-0.46l0.245-0.245l0.308-0.417h0.048h0.105h0.105l-0.307-0.508l0.402-0.706l0.354,0.103l-0.047-0.103
	    l-0.049-0.355l0.202-0.095l0.507-0.259l0.298,0.059l0.354,0.861l0.412,0.198l2.729-3.294l0.662-0.402l0.092-0.15h0.307l5.163,0.355
	    l1.525,0.197l0.354-2.02h0.352l0.249-0.061l0.061,0.354l0.553-0.198l0.307-0.662l0.45,0.212l0.308,0.096l0.661,0.307l0.297-0.907
	    l0.46-0.108l0.461,1.169l0.398-0.058l0.662,1.276l0.201,0.292l0.249-0.149l1.017-0.143l0.354-0.062l0.307-0.553l0.509-0.248
	    l0.2-0.706l-0.259-1.419l0.412-0.613l-0.412-0.867l-0.249-0.354l-1.323-0.955l-1.511-0.048l-0.263-0.15l-0.153-0.203v-0.104
	    l-0.14-0.156l-0.263-0.096l-0.245-0.614l-0.062-0.245l0.062-0.26l0.096-0.156l0.105-0.096l0.047-0.15l-0.095-0.512v-0.15
	    l0.201-0.661l-0.062-0.095l-0.045-0.048h-0.095l-0.153-0.103l-0.106-0.047l-0.048-0.158v-0.259v-0.144l0.048-0.103l0.106-0.156
	    l0.096-1.112l-0.25-0.398l-0.613-0.26l-0.354-0.249l-0.652-0.709l-0.105-0.259l-0.402-0.553l-0.106-0.156l-0.2-0.199l-0.044-0.156
	    v-0.15l0.044-0.449v-0.557v-0.215l-0.154-1.152l-0.092-0.307l-0.153-0.355l-0.109-0.204l-0.398-1.108v-0.059l-0.106-0.203
	    l-0.047-0.199v-0.047h-0.049l-0.2-0.662l-0.307-1.419l-0.461-0.812l-0.249-0.252l0.095-0.045v-0.059l0.213-0.143v-0.061l0.909-0.553
	    l0.151-0.096l0.143-0.15l-0.096-0.156v-0.106l0.354,0.202l0.048,0.061"
      district_id="59"
      district_name_eng="Kutaisi"
      district_name_geo="ქუთაისი"
    />
    <path id="path178_2_" vector-effect="none" d="M84.474,66.814l0.658,0.188
	    l3.139-0.664l0.057,1.63l1.264,0.422l0.901,0.058l1.027-0.602l1.576,0.122l0.531,0.845l3.379,1.563l1.207,0.069l2.476-0.731
	    l2.051,1.868l1.084,0.479l1.267-0.531l0.662,1.197l7.959,1.52l-0.479,2.947l-0.491,0.845l0.126,2.348l3.797,3.744l1.142,3.906
	    l-1.142,4.476l-0.971,1.45l-1.377,1.319l-1.815,0.297l-1.558,1.449l0.348,0.236l0.605-0.18l-0.719,0.602l2.226-0.179l0.069,0.309
	    l-0.845,0.788l1.323-0.13l-0.126,1.03h1.998l-0.734,1.082l0.491-0.116l2.408,1.085l-8.917,1.142l0.113,0.966l0.97-0.121l0.236,1.629
	    l-0.544,0.108l0.417,3.929l-0.349,4.457l1.503-0.589l1.14,0.476l0.789-0.309l0.183,0.549l0.787,0.183l0.11,1.027l0.971,0.113
	    l0.423-0.354l-0.24-0.604l0.422-0.495l0.114-0.716l1.815,0.057l0.183-0.479l0.954-0.545l0.787,1.572l1.324,0.662l0.126-0.297
	    l2.165,0.354l0.183-0.719l2.181,0.479l4.093-0.845l0.605,1.21l1.084,0.899l-1.746,3.503l-1.153,3.562l-1.193,0.053l-0.257,0.662
	    l-1.136,0.548l-0.48-0.183l-1.026,1.079l-2.656,1.089l-1.929,0.308l-1.08,0.603v0.479l-1.267,0.24l-11.574,10.91l-3.379,1.143
	    l1.084,0.256l0.24,2.948l-12.305,1.51l-1.619,0.533l0.295-0.533l-12.235-0.13l-5.908-2.643l-1.754-4.049l-5.064-1.688l-2.352-0.716
	    l-8.256,1.926l-0.308-4.7l-0.84-2.293l0.896-0.488l1.815-1.746l2.842-1.267l4.638-3.98l2.112-2.346l1.925-1.398l1.268-0.166
	    l7.592-3.869l1.394-1.137l0.114,0.238l1.152-2.839l0.184-1.268l-3.631-10.492l-0.954-5.597l2.643,1.267l4.655,0.181l-0.183-1.211
	    l-1.52-1.994l-2.278-3.983l0.058-1.372l-1.211-2.056l-0.423-1.502l0.31-0.187l-0.675-1.081l0.069-1.088l1.141-2.656l1.268-6.271
	    l1.445-4.223l1.45-1.079L84.474,66.814"
      district_id="2"
      district_name_eng="Vake"
      district_name_geo="ვაკე" 
    />
    <path id="path180_2_" vector-effect="none" d="M114.739,188.185
	    l-1.576-1.735l-1.632-0.977l-0.166-0.901l0.475-0.897l-0.239-0.422l-1.576-1.263l-1.741-0.608l-1.633-1.21l-2.291-0.42l-0.536-0.365
	    l-0.662-1.084l-2.05-1.747l-0.548-1.738l-3.489-1.34l-4.236-0.182l-2.106-0.776l-2.771-0.064l-3.195-1.198l-1.924,0.354
	    l-2.479,0.069l-3.738,0.718l-3.559-0.243l-6.092,0.188h-1.026l-0.716-1.028l-0.788-0.479l-1.506,0.775l-1.501-0.057l-3.872,3.684
	    h-3.064l-1.263,0.718l-1.69-0.238L51,176.081l-1.506-1.394l-0.789,0.663l-0.235,0.73l-0.845,0.53l-1.507,0.188l-1.08-0.661
	    l-1.266,0.238l-0.31,0.659l-1.38,1.084l-1.572,0.183l-2.647-0.366l-3.798-1.688l-1.096,0.308l-0.954-0.308l-1.507-1.138
	    l-0.845,0.184l-1.098-0.24l-2.036,1.085l-5.191-0.787l-0.479-0.845l0.604-1.029l0.24-2.77l2.587-4.108l1.873-1.007l0.366-0.788
	    l0.659-0.366l-0.072-0.479l2.055-1.03l1.926-0.293l-0.11-2.234l0.788-0.551l-0.072-0.237l0.734,0.058l1.799-0.901l0.786,0.122
	    l0.185-0.84l-1.997-0.127l-1.324-0.536l-2.165,0.594l-0.239-0.719l-0.606-0.476l-0.548,0.234l-0.479-0.057l-0.178-0.674
	    l-1.634,0.074l-0.901-1.21l-0.902-0.423l-1.079-2.111l-2.294-0.972v-0.422l-0.788-0.417l-0.549-1.622l0.127-1.575l-0.418-0.182
	    l-1.21-1.633l-0.959-0.589l-1.153-0.312l-0.845,0.365l-0.184-0.476l-0.954-0.422l0.057-0.422l-0.73-0.311l0.309-1.814l-0.479-0.113
	    l0.113-0.309h-0.479v-0.35l-0.31,0.056l0.126-1.14l-0.479-0.126l0.353-0.296l-0.353-0.549l0.662-0.658l-0.184-0.479l0.788,0.167
	    l0.24-0.777l-0.24-0.656l0.422,0.057l0.111,0.479l1.026,0.12L14.7,136.28l1.026,0.182l0.365-0.604l0.972,0.548l-0.126-0.788
	    l0.548-0.238l0.239,0.295l0.532-0.108l0.553-0.976l0.234,0.662l0.366,0.184l0.113-0.365l0.24,0.072l0.548,0.846l0.365,0.052
	    l0.423-0.475l-0.126-0.917l2.416-1.503l0.959-0.057l0.365-0.731l1.137,0.966l0.495-0.292v-0.548l0.897-0.126l0.366,0.179
	    l0.844-1.194l0.48-0.179l0.365,0.349l0.183-0.535l0.958-0.422l0.366,0.242l-0.13,1.139l1.153-0.298l0.237-0.718l1.269,0.592
	    l0.058-0.479l7.902,0.057l3.248-0.658l3.318,0.309l2.771-0.309l3.319-1.087l0.971,3.435v3.98l8.198-2.039l7.595,2.29l1.872,4.22
	    l4.824,2.464l12.966,0.252v1.081l1.142-1.268l12.36-1.628l-0.605-3.009l2.896-0.918l11.578-10.969l1.262-0.24v-0.547l1.085-0.534
	    l1.926-0.308l2.659-1.089l1.028-1.079l0.548,0.113l1.083-0.535l0.235-0.658l1.21-0.074l0.48-1.855l2.587-5.851l0.662-0.237
	    l1.997-1.941l0.959-0.535l1.697,5.727l1.324,1.685l0.238-0.183l-0.182,0.367l1.21,1.865l2.164,1.383l3.505,1.022l-1.634,2.054
	    l1.21,1.394l-1.025,3.249l0.057,3.505l-0.354,0.057v1.153l-3.5,0.057l0.365,0.602l-1.21,1.98l0.366-1.685l-2.238,0.126l-1.084,0.366
	    l2.112,0.238l-2.713,0.954l-0.663,0.732l-1.335,0.242l0.422-0.479l-0.17-0.25l-4.289,0.119l-1.381,0.668h-1.571l-0.113,0.309
	    l0.588,0.714l-0.349,0.297l-2.363-0.479l-0.901,0.24l-1.21,1.208l0.918-0.056l0.84,0.35l-0.24,1.032l-0.97,0.729l-2.348,0.788
	    l-0.479,0.954l-0.069,1.207l0.365-1.993l-0.422,0.422v2.107l1.872,1.872l3.136-1.198l1.21-3.261l1.559-0.184l0.479,2.234
	    l3.136,0.845l1.394,0.718l4.458,0.679l8.86-0.495l1.028,2.421v0.844l-2.588,0.179l2.77,2.043l2.896,1.205l2.055,0.313l-5.794,11.447
	    l-2.477,2.478h-4.935l-8.621,1.867l-2.478,3.066l3.082,4.95l2.462,2.478v3.136l-0.605,3.069h-8.017l-4.586-0.9l-0.844,3.979
	    l-2.461,0.113l-0.971-1.438l-1.323-0.919 M121.431,143.158l-0.787,0.788l2.952-1.396L121.431,143.158 M118.72,186.506l0.183,0.234
	    v-0.592L118.72,186.506"
      district_id="1"
      district_name_eng="Mtatsminda" 
      district_name_geo="მთაწმინდა" 
    />
    <path id="path182_2_" vector-effect="none" d="
	    M148.014,128.206l-0.113,1.38v0.055l-0.068,0.491v0.113l-0.057,1.267l0.422,0.789h0.057l0.548,0.544l-0.126,0.357l0.126-0.171
	    l0.297,0.714l3.316,0.188l1.691,0.601l1.151,1.032l1.869,3.062l1.507,0.072v0.293l0.532,0.058l3.138,0.13l1.21,0.715l1.024,1.449
	    l0.366,3.135l0.422-0.11v0.236l-0.422,0.058l0.295,1.323l0.367,1.023l0.535,0.479l11.095,1.632l2.899-0.536l1.741,1.089l1.394,1.628
	    l2.825,0.84l-0.475-0.486l0.731,0.486l-0.188,0.358l0.903,1.504l13.205,4.051l2.112,0.897l5.005,4.037l1.869,0.365l2.352-0.24v2.349
	    l0.954,1.575l3.558-0.674l0.788,1.21l-0.11,0.238l-1.21,0.128l0.057,0.604l-0.789,0.297l-0.479,0.967l-0.365-0.064l-0.182,1.022
	    l-1.268,1.083l0.069,0.424h0.604l-0.126,0.309l-1.925,0.896l2.645,5.434l-0.537,2.896l-6.029-1.508l-0.37,1.982l0.256,1.396
	    l-3.63-2.77l-0.35-2.973l0.166-1.137l-1.742-2.168l-0.661-0.366l-4.528-0.601l-1.269-1.689l-2.22-1.632l-5.67-3.306l-3.739-2.6
	    l-21.405-10.07l-4.698-4.037l-1.688-0.971l-0.967-0.239l-2.956,6.035h-1.268l-5.607-3.558l2.106-0.297l0.127-0.366l-0.127-1.083
	    l-0.953-1.998l-4.221,0.553l-1.872-0.188l-1.815,0.365l-6.2-1.023l-0.73-0.731l-1.747-0.237l-1.027-0.535l-0.417-1.875l-0.971-0.309
	    l-0.719,0.188l-1.086,2.416l-0.912,1.141l-0.898,0.545l-1.633,0.057l-1.192-1.023l-0.609-0.901l0.057-1.39l0.365-0.901l2.464-0.845
	    l0.972-0.729l0.235-1.028l-0.841-0.354l-0.901,0.056l1.21-1.208l0.898-0.235l2.351,0.479l0.365-0.301l-0.604-0.714l0.126-0.309
	    h1.563l1.318-0.663l4.346-0.124l0.184,0.25l-0.422,0.479l1.324-0.238l0.661-0.731l2.712-0.953l-2.106-0.244l1.079-0.366l2.237-0.121
	    l-0.365,1.685l1.211-1.985l-0.366-0.602l3.445-0.057l0.057-1.153l0.365-0.057l-0.07-3.501l1.028-3.248l-1.199-1.398l1.508-1.866
	    l2.038,1.574L148.014,128.206"
      district_id="4"
      district_name_eng="Krtsanisi"
      district_name_geo="კრწანისი" 
    />
    <path id="path184_2_" vector-effect="none" d="M173.694,109.022
	    l0.366,1.869l1.506-0.109l1.264-0.731l0.846-0.422l0.788,12.309l2.712,5.481l-0.292,1.869l1.798,4.336l2.181,0.365l-0.183,6.454
	    l0.183,1.262l0.423,0.242l0.052,0.059l1.563,1.754l0.55,0.608l1.209,1.138l0.058,1.689l-0.549,0.658l-0.536,1.813l-0.479-0.124
	    l0.354,0.422l-1.632,0.912l0.438,1.264l-0.731-0.486l0.475,0.486l-2.825-0.844l-1.394-1.63l-1.741-1.083l-2.899,0.536l-11.095-1.632
	    l-0.535-0.479l-0.367-1.023l-0.295-1.323l0.422-0.058v-0.236l-0.422,0.11l-0.366-3.139l-1.024-1.445l-1.21-0.715l-3.138-0.13
	    l-0.532-0.058v-0.293l-1.507-0.072l-1.872-3.066l-1.148-1.027l-1.691-0.601l-3.316-0.188l-0.297-0.714l-0.126,0.171l0.126-0.357
	    l-0.548-0.544h-0.057l-0.422-0.789l0.057-1.267v-0.113l0.068-0.491v-0.055l0.113-1.38l0.366,0.057l-0.183-1.079l0.788,0.771
	    l-0.073,0.788l1.633-0.719l1.025-2.604l0.058-0.057l0.972-1.137l2.951-1.758l1.576-1.376l0.423-0.309l1.506-1.089l1.742-3.615
	    l2.165-1.811l0.129-0.296l1.503-1.207l0.057-0.057l0.31-0.901l0.113-0.731v-0.056l0.068-0.187l0.297-1.153l1.394-1.561l2.712-0.365
	    h0.113l3.74,0.188l0.365,0.419L173.694,109.022"
      district_id="5"
      district_name_eng="Isani"
      district_name_geo="ისანი" 
    />
    <path id="path186_2_" vector-effect="none" d="M171.584,94.014l0.422,0.187
	    l0.069-0.072l0.354,0.072v0.057l0.604,0.058h0.126l0.479,0.121h0.125h0.297h0.127l0.295,0.244h0.127l0.182,0.18l0.059,0.057
	    l0.422,0.243l0.295,0.065l0.788,0.057h0.127l0.296,0.057l0.058,0.057l1.263,0.13l0.072,0.057l0.109,0.07h0.074l0.348,0.166h-0.422
	    h-0.057h-0.418h-0.239l-1.153,0.186l-0.353,0.123l-0.493,0.608v0.057l0.07,0.057l2.884,0.659l0.181,0.072h0.074l0.057,0.057
	    l1.32,0.236h0.365l0.971,0.187l0.113,0.057l0.606,0.309l0.051,0.113l0.073,0.123l0.057,0.113l-0.604,0.549l0.238,0.422l0.422-0.11
	    h0.128l0.182,0.11v0.126l0.297,0.422l0.053,0.114l0.422,0.236l0.187,0.071l1.023,0.351l0.057,0.072l0.788,0.35h0.127h0.113h0.125
	    l0.662,0.552l0.126,0.123l0.593,0.3l0.183,0.057l0.184,0.122l0.125,0.113l0.354,0.187v0.066l0.492,0.422l0.113,0.113l0.365,0.732
	    l0.053,0.057l0.313,0.113h0.057l0.125,0.067l-1.872,0.898l-0.182,0.057l-3.924,1.397l-0.114,0.057l-5.92,2.712l-0.844,0.422
	    l-1.263,0.731l-1.507,0.114l-0.365-1.877l0.067-0.657l-0.365-0.422l-3.74-0.184h-0.113l-2.713,0.365l-1.393,1.563l-0.297,1.153
	    l-0.068,0.18v0.056l-0.113,0.731l-0.31,0.901l-0.057,0.057l-1.503,1.21l-0.126,0.293l-2.167,1.819l-1.744,3.614l-1.505,1.081
	    l-0.423,0.309l-1.575,1.38l-2.953,1.754l-0.97,1.142l-0.057,0.057l-1.028,2.604l-1.628,0.714l0.069-0.788l-0.788-0.771l0.184,1.079
	    l-0.365-0.057l-0.789-2.713l-2.039-1.574v-0.292l-3.374-0.918l-1.998-1.194l-1.377-2.054l0.167-0.367l3.871-1.98l-3.506-6.881
	    l1.747-0.845l-0.662-1.558l0.548-0.367l0.662-0.364l2.952,5.188l-1.324-3.865l-0.366-2.226l1.268-0.543l1.153,0.178l0.845-0.291
	    l1.741,0.422l2.661-0.919l1.377,0.074l-0.057-0.309l-1.577-0.422l-0.057-0.298l3.082,0.241v-0.31l-0.844-0.297l0.183-0.366
	    l2.644-0.661l2.956-0.113l1.394-0.487l3.923-2.043l3.911-3.505l0.124-0.602l-0.547-1.632l3.191,0.914l0.548-1.519l0.127,0.068
	    l0.238,0.114l0.719,0.13h0.054"
      district_id="7"
      district_name_eng="Chugureti"
      district_name_geo="ჩუღურეთი" 
    />
    <path id="path188_2_" vector-effect="none" d="M166.41,75.383l-0.239,0.658
	    l-0.126-0.058l-0.127-0.122l-0.057-0.057l-0.057-0.057l-0.125-0.13v-0.057l-0.184-0.057l-0.057-0.065h-0.057l-0.057-0.057
	    l-0.184-0.114h-0.125l-0.057-0.072l-0.057-0.057l-0.31-0.124l-0.114-0.057l-0.125-0.057l-0.604-0.243l-0.114-0.122h-0.069
	    l-0.354-0.129h-0.068h-0.113h-0.069l-0.058-0.057h-0.113l-0.491-0.18l-0.476-0.186l-0.187-0.294l-0.057-0.057v-0.073l-0.07-0.056
	    l-0.109-0.18l-0.057-0.057h-0.072v-0.057h-0.057v-0.073l-0.053-0.057l-0.423-0.535l-0.126-0.123l-0.187-0.187h-0.053l-0.057-0.056
	    l-0.128-0.058l-0.185-0.122v-0.057l-0.184-0.13l-0.167-0.114l-0.309-0.251l-0.187-0.057h-0.052h-0.057l-0.185-0.058l-0.238-0.057
	    l-0.366-0.066h-0.057l-0.492-0.242l-0.113-0.058l-0.182-0.056h-0.127l-0.171-0.066l-0.309-0.057l-0.423-0.129l-0.181-0.058
	    l-0.298-0.113l-0.125-0.065l-0.365-0.113l-0.113-0.073l-0.423-0.057l-0.127-0.057h-0.113l-0.235-0.057l-0.183-0.066l-0.495-0.057
	    h-0.11l-0.057,0.057h-0.126h-0.057l-0.126,0.066H153.2l-0.131-0.066h-0.057h-0.125h-0.057h-0.054h-0.312h-0.057h-0.054l-0.057,0.066
	    l-0.074,0.057l-0.109,0.113l-0.072,0.073l-0.166,0.057h-0.074l-0.053,0.057v0.065h-0.057l-0.183,0.113l-0.058,0.058h-0.073
	    l-0.057,0.072l-0.057,0.057l-0.418,0.179l-0.125,0.058l-0.297,0.479v0.072v0.35v0.13v0.122v0.058v0.056l-0.069,0.187v0.057v0.066
	    v0.113v0.057v0.073l0.069,0.057v0.057l-0.069,0.179v0.057l-0.058,0.13l-0.057,0.179l-0.057,0.187v0.057v0.123v0.057l-0.131,0.187
	    v0.057v0.057l0.131,1.263l-0.073,0.313l-0.058,0.235v0.058v0.309h-0.057l-0.178,0.057l-0.422,1.746l-0.497,0.069l0.185,0.167
	    l0.182,0.129l0.131,0.058l0.234,0.179l0.188,0.13l0.11,0.113l1.026,0.73l-0.719,0.236l0.422,0.718l0.114,0.185l0.789,0.787v0.057
	    h0.057l0.125,0.072l0.057,0.053l0.125,0.11l0.533,0.365l0.186,0.131l0.967,0.901l0.187,0.234L154.642,84l0.183,0.057h1.028
	    l1.745,1.689v0.182l0.24,0.367h0.126h0.108h0.058v0.057h0.13h0.053l0.183-0.057l0.058,0.057l0.97,0.069l0.126,0.169l0.479,0.602
	    l0.184,0.257l0.057,0.166v0.072l0.479,0.184h0.07h0.114h0.057l0.124,0.166l0.057,0.188l0.07,0.309l0.057,0.113l0.058,0.122
	    l0.125,0.057l0.183,0.244l-0.068,0.121l0.548,0.422l0.058,0.057v0.057l-0.114,0.253l0.057,0.113l0.365,0.24l0.057,0.068l0.058,0.057
	    l0.308,0.114l0.903,0.365l0.057,0.057l0.547,0.184h0.057l0.365,0.068l0.057,0.058h0.127l0.422,0.239l0.058,0.057h0.239h0.057
	    l0.549,0.183h0.058l0.182,0.131h0.057h0.252l0.113,0.053l0.241,0.125l0.234,0.057h0.074l0.364,0.057h0.058h0.057l0.423,0.185
	    l0.234,0.057h0.131h0.183l0.954,0.182l0.069,0.057h-0.252h-0.167h-0.845l-0.184,0.073h-0.072l-0.296,0.058h-0.544h-0.113
	    l-0.309,0.056h-0.057l-0.131,0.31v0.057l0.074,0.057h0.113l0.124,0.064l0.366,0.113l0.297,0.074l0.73,0.057h0.11l0.057-0.057
	    l0.183-0.074l1.211,0.241l-0.549,1.519l-3.192-0.914l0.55,1.632l-0.128,0.602l-3.91,3.505l-3.923,2.037l-1.393,0.493l-2.952,0.113
	    l-2.647,0.661l-0.184,0.366l0.846,0.297v0.31l-3.079-0.241l0.054,0.298l1.575,0.422l0.057,0.309l-1.378-0.074l-2.658,0.919
	    l-1.742-0.422l-0.845,0.291l-1.153-0.178l-1.264,0.543l0.366,2.226l1.319,3.865l-2.953-5.188l-0.66,0.364l-3.741-9.039l-0.719-0.917
	    l-0.787,0.552l-2.529-4.036l-1.689-3.618l-0.491-2.896l-0.057-2.534l1.574-4.346l-0.239-0.125l-0.913-0.354l1.027-4.105l0.125-2.474
	    l-1.268-3.914l0.355-1.572l0.547-0.604l1.21,2.599l0.476,0.244l6.389-12.476l2.106,1.137l0.422-1.388l0.496,0.178l0.897-1.21
	    l1.632-0.954l2.531-0.788l0.182,0.423l1.93,1.449l0.715,1.576l-0.167,0.291l1.32,1.451l2.647,0.661l0.309,0.602l1.867,1.03
	    l3.321,2.949l2.292,3.013l1.688,3.322l2.347,2.525v1.268"
      district_id="9"
      district_name_eng="Nadzaladevi"
      district_name_geo="ნაძალადევი" 
    />
    <path id="path190_2_" vector-effect="none" d="M135.3,56.873l-5.978-0.846
	    l-4.698-0.057l-0.659,7.596l0.053,10.183l-0.234,3.266l0.182,3.485l0.841,0.072l0.72,1.023l-0.605,0.48v0.479h1.152l1.028,1.393
	    l0.902,0.476l-1.746,2.66l-1.153,2.351l-0.057,2.051l1.141,5.247l1.758,4.276l3.192,3.078l0.718,1.141l0.73,2.348l2.406,4.471
	    l-2.588,2.293l-0.662,0.241l-0.24,0.535l-0.97-0.719l-0.662-1.21l-4.104,0.845l-2.17-0.479l-0.179,0.662l-2.111-0.365l-0.126,0.365
	    l-1.381-0.662l-0.73-1.575l-1.028,0.548l-0.108,0.479l-1.815-0.057l-0.114,0.716l-0.491,0.423l0.256,0.608l-0.422,0.422
	    l-0.972-0.187l-0.125-0.954l-0.775-0.183l-0.184-0.549l-0.788,0.251l-1.136-0.418l-1.45,0.532l0.297-4.4l-0.423-3.985l0.549-0.052
	    l-0.24-1.633l-0.97,0.125l-0.127-0.966l8.931-1.142l-2.421-1.085l-0.476,0.06l0.731-1.025l-1.941-0.056l0.069-0.975l-1.337,0.13
	    l0.846-0.788l-0.057-0.309l-2.237,0.179l0.787-0.602l-0.605,0.18l-0.422-0.236l1.575-1.449l1.8-0.297l1.393-1.324l0.97-1.445
	    l1.143-4.532l-1.143-3.85l-3.796-3.744l-0.069-2.417l0.422-0.775l0.548-2.951l-8.016-1.52l-0.605-1.264l-1.334,0.602l-1.017-0.479
	    l-2.106-1.868l-2.42,0.731l-1.211-0.074l-3.433-1.628l-0.474-0.775l-1.633-0.122l-1.028,0.602l-2.111-0.479l-0.126-1.633
	    l0.971-4.946l1.21-1.689l-0.422-1.746l-3.376-4.58l-0.73-2.9l0.058-3.247l-0.719-3.688l-2.233-2.462l-1.381-2.896l-0.309-1.993
	    l1.52-1.689l2.585-0.959l12.476,1.689l3.266-0.788l2.769,0.058l1.742-2.348l2.718-1.563l3.979-0.604l2.659-0.901l4.694-2.234
	    l0.497-1.267l4.693,0.787l1.268,0.715l3.135,0.424l0.957,0.422l4.289,5.851l1.324,3.739l-0.844,6.808l0.661,1.999l1.867,2.59
	    l-0.787,5.003l-0.423,1.379L135.3,56.873"
      district_id="3"
      district_name_eng="Saburtalo"
      district_name_geo="საბურთალო"
    />
    <path id="path192_2_" vector-effect="none" d="M131.925,80.5l0.239,0.129
	    l-1.575,4.346l0.057,2.53l0.492,2.895l1.688,3.614l2.531,4.038l0.788-0.545l0.713,0.91l3.744,9.046l-0.548,0.367l0.661,1.558
	    l-1.745,0.845l3.5,6.881l-3.865,1.98l-0.24,0.18l-1.319-1.561l-0.663-1.633l-0.237-2.16l-0.675-1.875h-0.479l-2.406-4.468
	    l-0.73-2.351l-0.718-1.141l-3.192-3.078l-1.758-4.276l-1.141-5.243l0.057-2.055l1.153-2.347l1.746-2.664l-0.902-0.476l-1.028-1.393
	    h-1.152v-0.479l0.605-0.48l-0.716-1.023l-0.845-0.072l-0.182-3.485l0.239-3.266l-0.058-10.183l0.662-7.596l4.695,0.057l5.978,0.846
	    l-0.913,2.898l0.125,2.828l-1.686,3.558l-1.027,1.323l-0.548,0.602l-0.354,1.575l1.267,3.911l-0.126,2.473l-1.027,4.109
	    L131.925,80.5"
      district_id="8"
      district_name_eng="Didube"
      district_name_geo="დიდუბე" 
    />
    <path id="path196_2_" vector-effect="none" d="
	    M161.221,66.704l-4.459-4.401l-1.759-0.845l-0.422-0.73l-2.645-0.662l-1.319-1.447l0.167-0.3l-0.719-1.571l-1.926-1.451
	    l-0.183-0.422l-2.529,0.731l-1.634,1.028l-0.9,1.141l-0.491-0.187l-0.423,1.396l-2.107-1.088l-6.389,12.422l-0.474-0.183
	    l-1.211-2.591l1.024-1.331l1.688-3.614l-0.125-2.828l0.913-2.898l1.011-1.577l1.102-4.383l0.108-1.942l-1.867-2.59l-0.661-2.056
	    l0.844-6.808l-1.324-3.682l-4.289-5.852l-0.957-0.422l-3.135-0.423l-1.268-0.772l-3.614-0.549v0.24l-1.079-0.422l1.192-2.827
	    l2.603-1.924l3.854-0.845l6.636-0.188l6.514,1.508l0.291,2.293l0.789,2.108l0.057,1.929l0.662,1.081l1.268,4.401l2.529,0.662
	    l2.659,1.262l0.366,0.976l3.248-4.109l2.239-0.771l5.242,1.136l1.928,1.325l1.08,2.476l5.727,0.365l0.309,3.319l-6.822,12.948
	    l5.062,5.669l0.973,3.559l2.421,3.688l-4.895,1.21l-1.141,4.092l2.404,1.686l0.365,1.999l-0.128,1.083l-1.192-0.309v-1.268
	    l-2.347-2.533l-0.606-1.56l-2.236-3.378"
      district_id="10"
      district_name_eng="Gldani"
      district_name_geo="გლდანი" 
    />
    <path id="path198_2_" vector-effect="none" d="
	    M252.691,91.176l1.981,8.381l-2.347,13.153l-1.502,1.686h-4.955l-6.806-1.264h-9.283l-3.078,1.264l-1.575,1.872l-0.662-0.244
	    l-3.906-0.966l3.667,2.291l0.974,1.56l0.418,4.109l0.72,1.267l2.29,0.126l5.612-0.735l16.82-0.601l2.478-0.662l4.401,0.24
	    l4.642,6.569l6.383,0.419l1.028-0.296l0.901-1.321l-0.776-3.139l0.298-1.332l0.97-0.479l1.085,0.788l0.714,0.966l-0.348,2.832
	    l0.588,3.008l-2.53,2.786l-1.802,3.557l-2.954,3.488l-0.238,0.841l-3.868,5.907l-1.209,0.972l-0.719,2.169v1.21l0.846,2.655
	    l-2.237,2.953l-1.688,1.267l-1.798,0.718l-2.785-0.187l-1.016-0.658l-1.024,0.309l-2.18,3.615l-0.593,0.24l-2.964,0.125
	    l-1.085,0.715l-0.537,1.633l-1.685,0.958l-2.42,0.126l-0.531,0.532l1.854,5.132l-1.267,2.591l-2.222,0.845l-2.603-0.113
	    l-2.348,0.771l-2.352-0.584l-5.904,0.11l0.365-2.166l-0.238-1.575l-4.346-8.016l-1.026-0.959l-2.421-0.549l-4.329,1.027
	    l-2.352,0.236l-1.872-0.365l-5.002-4.037l-2.112-0.896l-13.205-4.048l-0.903-1.509l0.188-0.354l-0.438-1.267l1.632-0.909
	    l-0.354-0.422l0.479,0.124l0.532-1.813l0.553-0.658l-0.058-1.689l-1.209-1.141l-0.55-0.605l-1.563-1.754l-0.057-0.059l-0.422-0.242
	    l-0.179-1.262l0.179-6.458l-2.177-0.365l-1.803-4.332l0.297-1.869l-2.712-5.485l-0.788-12.309l5.92-2.714l0.11-0.058l3.926-1.388
	    l0.183-0.057l1.869-0.901l0.239,0.349l0.183,0.13l0.113,0.126l0.057,0.058l-0.057,2.163l0.057,0.188l0.126,0.477v0.255v0.349v0.184
	    v0.057v0.125l0.058,0.188v0.11l0.069,0.255v0.057v0.178l0.057,0.058v0.553v0.234l0.422,0.351l-0.057,0.073l0.057,0.239l0.113,0.109
	    l0.127,0.309l0.057,0.13l0.068,0.113v0.123l1.69,1.51l0.113-0.058h0.178h0.131h0.235l0.056-0.071l0.479-0.057h0.074l0.291-0.057
	    h0.131l0.11,0.057h0.308h0.057h0.126l0.057,0.057l0.114,0.129l0.069,0.057l0.114,0.123l0.124,0.057l0.114,0.057l0.31,0.129
	    l0.113-0.057h0.126h0.057l0.789-0.186l0.057-0.065l0.124,0.422l0.058,0.065l0.309,0.186l0.113-0.072l0.127-0.182v-0.054v-0.058
	    l0.058,0.058h0.181h0.057l0.185,0.054l0.057-0.111l0.49-0.788l-0.068-0.113l-0.297-0.969l-0.058-0.128l-0.067-0.535l0.067-0.125
	    l0.113-0.297v-0.068l-0.056-0.298l-0.058-0.182l-0.604,0.365l-4.528-3.924l-1.633-0.531v-3.87l-3.854-4.938l-2.347-1.759
	    l1.392-0.901l1.8-2.473l4.95-3.725l2.529,6.197h3.066v-1.869l-1.869-6.805l2.475-3.079l4.527-2.591l3.321-1.08l5.117-3.139
	    l11.155-1.207l9.592,6.563l9.998,3.191l6.822,2.973l2.056,3.306"
      district_id="6"
      district_name_eng="Samgori"
      district_name_geo="სამგორი"
    />
  </g>

</svg>
